<?xml version="1.0" encoding="UTF-8" standalone="no"?><!DOCTYPE svg PUBLIC "-//W3C//DTD SVG 1.1//EN" "http://www.w3.org/Graphics/SVG/1.1/DTD/svg11.dtd"><svg width="100%" height="100%" viewBox="0 0 550 550" version="1.1" xmlns="http://www.w3.org/2000/svg" xmlns:xlink="http://www.w3.org/1999/xlink" xml:space="preserve" xmlns:serif="http://www.serif.com/" style="fill-rule:evenodd;clip-rule:evenodd;stroke-linejoin:round;stroke-miterlimit:2;"><path d="M275,0c151.777,0 275,123.223 275,275c0,151.777 -123.223,275 -275,275c-151.777,0 -275,-123.223 -275,-275c-0,-151.777 123.223,-275 275,-275Zm-207.835,361.286c22.842,54.898 66.813,98.832 121.736,121.627c26.531,11.01 55.611,17.087 86.099,17.087c30.448,0 59.491,-6.061 85.985,-17.04l0.004,-0.002c0.049,-0.02 0.098,-0.04 0.146,-0.06c0.049,-0.021 0.098,-0.041 0.146,-0.061l0.005,-0.002c27.43,-11.413 52.123,-28.101 72.81,-48.795c20.77,-20.777 37.502,-45.593 48.909,-73.164c7.908,-19.115 13.257,-39.548 15.619,-60.876l-25.174,-0c-9.035,72.321 -56.747,132.696 -121.751,159.742l-0.134,0.056l-0.134,0.055c-48.857,20.157 -104.108,20.144 -152.963,-0.042c-48.818,-20.257 -87.904,-59.31 -108.21,-108.112l-0.056,-0.134l-0.055,-0.134c-20.157,-48.857 -20.144,-104.108 0.042,-152.963c20.257,-48.818 59.31,-87.904 108.112,-108.21l0.134,-0.056l0.134,-0.055c48.857,-20.157 104.108,-20.144 152.963,0.042c65.087,27.008 112.875,87.426 121.918,159.811l25.174,-0c-2.31,-20.854 -7.474,-40.852 -15.093,-59.594c-11.427,-28.108 -28.374,-53.392 -49.491,-74.502c-20.722,-20.714 -45.461,-37.412 -72.941,-48.817c-26.531,-11.01 -55.611,-17.087 -86.099,-17.087c-30.448,0 -59.491,6.061 -85.985,17.04l-0.004,0.002c-0.049,0.02 -0.098,0.04 -0.146,0.06c-0.049,0.021 -0.098,0.041 -0.146,0.061l-0.005,0.002c-54.898,22.842 -98.832,66.813 -121.627,121.736c-11.01,26.531 -17.087,55.611 -17.087,86.099c-0,30.448 6.061,59.491 17.04,85.985l0.002,0.004c0.02,0.049 0.04,0.098 0.06,0.146c0.021,0.049 0.041,0.098 0.061,0.146l0.002,0.005Zm331.557,-210.051c-68.308,-68.284 -179.203,-68.265 -247.487,0.043c-68.284,68.308 -68.265,179.203 0.043,247.487c68.308,68.284 179.203,68.265 247.487,-0.043c68.284,-68.308 68.265,-179.203 -0.043,-247.487Zm-123.722,-26.235c82.787,0 150,67.213 150,150c-0,82.787 -67.213,150 -150,150c-82.787,0 -150,-67.213 -150,-150c0,-82.787 67.213,-150 150,-150Zm12.5,25.619c-4.118,-0.409 -8.285,-0.618 -12.5,-0.618c-4.215,-0 -8.382,0.209 -12.5,0.618l-0,223.606c-49.302,-6.16 -87.5,-48.267 -87.5,-99.225c-0,-41.934 25.867,-77.873 62.5,-92.72l-0,-26.547c-50.687,15.938 -87.499,63.338 -87.499,119.267c-0,68.989 56.01,124.999 124.999,124.999c4.215,0 8.382,-0.209 12.5,-0.618l-0,-111.881l86.725,0c-4.559,36.474 -28.788,66.869 -61.725,80.22l-0,26.547c50.687,-15.938 87.499,-63.338 87.499,-119.267c0,-64.774 -49.375,-118.106 -112.499,-124.381Zm-0,25.156c45.205,5.648 81.075,41.517 86.725,86.725l-86.725,-0l-0,-86.725Z"/></svg>